<?xml version="1.0" encoding="UTF-8"?>
<!DOCTYPE svg PUBLIC "-//W3C//DTD SVG 1.1//EN" "http://www.w3.org/Graphics/SVG/1.1/DTD/svg11.dtd">
<svg xmlns="http://www.w3.org/2000/svg" version="1.1" width="2475px" height="2475px" style="shape-rendering:geometricPrecision; text-rendering:geometricPrecision; image-rendering:optimizeQuality; fill-rule:evenodd; clip-rule:evenodd" xmlns:xlink="http://www.w3.org/1999/xlink">
<g><path style="opacity:1" fill="#fefefe" d="M -0.5,-0.5 C 824.5,-0.5 1649.5,-0.5 2474.5,-0.5C 2474.5,824.5 2474.5,1649.5 2474.5,2474.5C 1649.5,2474.5 824.5,2474.5 -0.5,2474.5C -0.5,1649.5 -0.5,824.5 -0.5,-0.5 Z"/></g>
<g><path style="opacity:1" fill="#2869a5" d="M 1962.5,668.5 C 1961.08,670.515 1960.41,672.848 1960.5,675.5C 1935.17,765.002 1880.84,830.502 1797.5,872C 1759.23,889.341 1718.9,899.341 1676.5,902C 1649.5,902.5 1622.5,902.667 1595.5,902.5C 1585.68,901.506 1575.68,901.173 1565.5,901.5C 1565.21,903.735 1565.54,905.735 1566.5,907.5C 1567.28,911.124 1568.78,914.458 1571,917.5C 1577,924.167 1583,930.833 1589,937.5C 1594.78,944.591 1593.28,949.425 1584.5,952C 1568.73,952.686 1553.06,954.352 1537.5,957C 1530.91,958.392 1524.58,960.225 1518.5,962.5C 1510.83,964.057 1503.5,966.391 1496.5,969.5C 1423.27,998.898 1367.77,1048.23 1330,1117.5C 1319.91,1137 1312.08,1157.34 1306.5,1178.5C 1304.45,1181.01 1303.45,1184.01 1303.5,1187.5C 1302.85,1189.44 1302.52,1191.44 1302.5,1193.5C 1301.08,1195.51 1300.41,1197.85 1300.5,1200.5C 1300.5,1200.83 1300.5,1201.17 1300.5,1201.5C 1298.55,1207.56 1297.55,1213.89 1297.5,1220.5C 1296.53,1222.95 1296.19,1225.61 1296.5,1228.5C 1294.57,1242.63 1294.07,1256.96 1295,1271.5C 1295.22,1276.41 1296.06,1281.08 1297.5,1285.5C 1298.53,1293.97 1300.19,1302.3 1302.5,1310.5C 1302.41,1313.15 1303.08,1315.49 1304.5,1317.5C 1312.69,1340.52 1324.86,1361.19 1341,1379.5C 1365.01,1403.17 1388.34,1427.51 1411,1452.5C 1420.16,1463.16 1427,1475.16 1431.5,1488.5C 1433.07,1496.99 1433.74,1505.65 1433.5,1514.5C 1433.5,1516.17 1433.5,1517.83 1433.5,1519.5C 1432.08,1521.51 1431.41,1523.85 1431.5,1526.5C 1427.52,1536.66 1422.02,1546 1415,1554.5C 1370.72,1600.12 1325.22,1644.29 1278.5,1687C 1272.87,1691.13 1266.87,1694.63 1260.5,1697.5C 1258.03,1697.75 1256.03,1698.75 1254.5,1700.5C 1250.2,1701.35 1245.87,1702.01 1241.5,1702.5C 1234.15,1702.45 1226.82,1702.12 1219.5,1701.5C 1217.49,1700.08 1215.15,1699.41 1212.5,1699.5C 1202.04,1695.55 1192.7,1689.71 1184.5,1682C 1144.67,1644.84 1105.51,1607.01 1067,1568.5C 1059.63,1560.8 1052.63,1552.8 1046,1544.5C 1039.51,1535.53 1035.68,1525.53 1034.5,1514.5C 1034.55,1507.15 1034.88,1499.82 1035.5,1492.5C 1037.31,1489.86 1038.31,1486.86 1038.5,1483.5C 1040.77,1477.62 1043.61,1471.95 1047,1466.5C 1059.21,1449.95 1072.54,1434.29 1087,1419.5C 1104.67,1404.5 1121,1388.17 1136,1370.5C 1148.07,1354.69 1157.24,1337.35 1163.5,1318.5C 1164.92,1316.49 1165.59,1314.15 1165.5,1311.5C 1165.23,1309.9 1165.57,1308.57 1166.5,1307.5C 1168.93,1302.21 1170.27,1296.55 1170.5,1290.5C 1172.29,1272.23 1172.96,1253.89 1172.5,1235.5C 1172.7,1230.25 1172.03,1225.25 1170.5,1220.5C 1170.5,1220.17 1170.5,1219.83 1170.5,1219.5C 1170.88,1215.51 1170.22,1211.84 1168.5,1208.5C 1168.5,1207.17 1168.5,1205.83 1168.5,1204.5C 1168.59,1201.85 1167.92,1199.51 1166.5,1197.5C 1166.42,1194.79 1166.09,1192.13 1165.5,1189.5C 1164.65,1184.11 1163.49,1178.78 1162,1173.5C 1161.62,1172.94 1161.12,1172.61 1160.5,1172.5C 1136.05,1093.23 1088.05,1032.73 1016.5,991C 973.243,967.372 926.91,953.872 877.5,950.5C 877.184,947.022 877.684,943.688 879,940.5C 884.578,932.251 890.912,924.584 898,917.5C 900.707,913.419 902.874,909.086 904.5,904.5C 905.043,904.44 905.376,904.107 905.5,903.5C 873.174,902.5 840.84,902.167 808.5,902.5C 807.5,902.5 806.5,902.5 805.5,902.5C 799.37,901.253 793.037,900.586 786.5,900.5C 713.25,895.69 649.25,869.19 594.5,821C 558.539,786.595 532.539,745.761 516.5,698.5C 515.538,694.605 514.204,690.939 512.5,687.5C 512.741,685.102 512.074,683.102 510.5,681.5C 510.5,681.167 510.5,680.833 510.5,680.5C 510.277,676.838 509.277,673.505 507.5,670.5C 505.655,659.441 503.488,648.441 501,637.5C 499.039,622.556 497.872,607.556 497.5,592.5C 497.173,551.428 497.506,510.428 498.5,469.5C 501.177,468.386 503.844,468.386 506.5,469.5C 526.176,514.052 545.342,558.719 564,603.5C 586.646,651.809 620.813,689.642 666.5,717C 687.483,728.048 709.483,736.215 732.5,741.5C 734.515,742.924 736.848,743.59 739.5,743.5C 739.833,743.5 740.167,743.5 740.5,743.5C 748.555,745.786 756.888,747.119 765.5,747.5C 772.49,748.214 779.49,748.88 786.5,749.5C 871.334,750.329 956.334,750.996 1041.5,751.5C 1256.18,754.725 1470.85,753.892 1685.5,749C 1692.84,748.522 1700.17,748.022 1707.5,747.5C 1713.5,747.667 1719.17,746.667 1724.5,744.5C 1725.83,744.5 1727.17,744.5 1728.5,744.5C 1731.15,744.59 1733.49,743.924 1735.5,742.5C 1801.82,727.655 1852.66,691.322 1888,633.5C 1893.67,622.833 1899.33,612.167 1905,601.5C 1924.29,556.252 1944.12,511.252 1964.5,466.5C 1965.83,467.167 1967.17,467.833 1968.5,468.5C 1969.52,501.335 1970.52,534.169 1971.5,567C 1972.24,601.281 1969.24,635.114 1962.5,668.5 Z"/></g>
<g><path style="opacity:1" fill="#5187b7" d="M 498.5,469.5 C 497.506,510.428 497.173,551.428 497.5,592.5C 496.833,572.169 496.5,551.669 496.5,531C 496.5,510.156 497.167,489.656 498.5,469.5 Z"/></g>
<g><path style="opacity:1" fill="#c6d7e6" d="M 514.5,518.5 C 513.603,517.402 512.77,517.402 512,518.5C 511.692,517.692 511.192,517.025 510.5,516.5C 509.489,520.627 508.489,524.627 507.5,528.5C 507.422,522.304 508.422,516.304 510.5,510.5C 512.372,512.91 513.705,515.577 514.5,518.5 Z"/></g>
<g><path style="opacity:1" fill="#f7f9fa" d="M 514.5,518.5 C 534.211,563.255 556.044,606.922 580,649.5C 608.787,696.316 649.62,727.316 702.5,742.5C 705.505,744.277 708.838,745.277 712.5,745.5C 726.262,749.804 740.262,753.637 754.5,757C 825.45,760.729 896.45,762.229 967.5,761.5C 979.5,762.167 991.5,762.833 1003.5,763.5C 995.872,772.066 988.705,781.066 982,790.5C 968,812.5 954,834.5 940,856.5C 931.418,867.139 922.252,877.305 912.5,887C 879.876,889.515 847.209,891.349 814.5,892.5C 727.835,892.684 653.668,862.684 592,802.5C 554.201,761.908 528.701,714.575 515.5,660.5C 515.59,657.848 514.924,655.515 513.5,653.5C 513.156,649.106 512.49,644.772 511.5,640.5C 511.59,637.848 510.924,635.515 509.5,633.5C 508.663,622.798 507.497,612.131 506,601.5C 505.5,587.837 505.333,574.171 505.5,560.5C 506.94,550.367 507.607,540.034 507.5,529.5C 507.5,529.167 507.5,528.833 507.5,528.5C 508.489,524.627 509.489,520.627 510.5,516.5C 511.192,517.025 511.692,517.692 512,518.5C 512.77,517.402 513.603,517.402 514.5,518.5 Z"/></g>
<g><path style="opacity:1" fill="#f7f9fa" d="M 1465.5,763.5 C 1510.66,762.501 1556,762.168 1601.5,762.5C 1677.34,773.023 1749.01,760.857 1816.5,726C 1836.48,713.358 1853.98,697.858 1869,679.5C 1877.78,668.044 1885.78,656.044 1893,643.5C 1902.78,625.597 1912.28,607.597 1921.5,589.5C 1923.18,588.817 1923.84,587.483 1923.5,585.5C 1926.28,585.911 1926.94,585.078 1925.5,583C 1928.91,577.77 1931.74,572.27 1934,566.5C 1934.74,565.251 1934.57,564.251 1933.5,563.5C 1941.24,545.782 1949.07,528.115 1957,510.5C 1969.07,581.364 1961.41,650.031 1934,716.5C 1884.91,818.839 1803.75,876.672 1690.5,890C 1676.06,891.798 1661.56,892.631 1647,892.5C 1616.82,891.157 1586.65,889.324 1556.5,887C 1545.59,876.094 1535.42,864.594 1526,852.5C 1512.58,830.665 1498.92,808.998 1485,787.5C 1479.01,779.021 1472.51,771.021 1465.5,763.5 Z"/></g>
<g><path style="opacity:1" fill="#b9cee1" d="M 507.5,529.5 C 507.607,540.034 506.94,550.367 505.5,560.5C 505.208,549.954 505.875,539.621 507.5,529.5 Z"/></g>
<g><path style="opacity:1" fill="#dee7f0" d="M 1933.5,563.5 C 1934.57,564.251 1934.74,565.251 1934,566.5C 1931.74,572.27 1928.91,577.77 1925.5,583C 1926.94,585.078 1926.28,585.911 1923.5,585.5C 1923.84,587.483 1923.18,588.817 1921.5,589.5C 1924.98,580.536 1928.98,571.869 1933.5,563.5 Z"/></g>
<g><path style="opacity:1" fill="#8aaccd" d="M 509.5,633.5 C 510.924,635.515 511.59,637.848 511.5,640.5C 510.076,638.485 509.41,636.152 509.5,633.5 Z"/></g>
<g><path style="opacity:1" fill="#7aa1c6" d="M 513.5,653.5 C 514.924,655.515 515.59,657.848 515.5,660.5C 514.076,658.485 513.41,656.152 513.5,653.5 Z"/></g>
<g><path style="opacity:1" fill="#a5c0d9" d="M 1962.5,668.5 C 1962.59,671.152 1961.92,673.485 1960.5,675.5C 1960.41,672.848 1961.08,670.515 1962.5,668.5 Z"/></g>
<g><path style="opacity:1" fill="#b1c7de" d="M 507.5,670.5 C 509.277,673.505 510.277,676.838 510.5,680.5C 508.723,677.495 507.723,674.162 507.5,670.5 Z"/></g>
<g><path style="opacity:1" fill="#b1c8de" d="M 510.5,681.5 C 512.074,683.102 512.741,685.102 512.5,687.5C 510.926,685.898 510.259,683.898 510.5,681.5 Z"/></g>
<g><path style="opacity:1" fill="#acc5dc" d="M 512.5,687.5 C 514.204,690.939 515.538,694.605 516.5,698.5C 514.01,695.374 512.677,691.708 512.5,687.5 Z"/></g>
<g><path style="opacity:1" fill="#739bc3" d="M 702.5,742.5 C 706.162,742.723 709.495,743.723 712.5,745.5C 708.838,745.277 705.505,744.277 702.5,742.5 Z"/></g>
<g><path style="opacity:1" fill="#92b2d1" d="M 732.5,741.5 C 735.152,741.41 737.485,742.076 739.5,743.5C 736.848,743.59 734.515,742.924 732.5,741.5 Z"/></g>
<g><path style="opacity:1" fill="#adc5dc" d="M 740.5,743.5 C 749.076,744.087 757.41,745.42 765.5,747.5C 756.888,747.119 748.555,745.786 740.5,743.5 Z"/></g>
<g><path style="opacity:1" fill="#78a0c6" d="M 1735.5,742.5 C 1733.49,743.924 1731.15,744.59 1728.5,744.5C 1730.51,743.076 1732.85,742.41 1735.5,742.5 Z"/></g>
<g><path style="opacity:1" fill="#739bc3" d="M 1724.5,744.5 C 1719.17,746.667 1713.5,747.667 1707.5,747.5C 1712.93,745.863 1718.59,744.863 1724.5,744.5 Z"/></g>
<g><path style="opacity:1" fill="#b9cee1" d="M 786.5,749.5 C 859.167,749.333 931.834,749.5 1004.5,750C 1017.01,750.169 1029.34,750.669 1041.5,751.5C 956.334,750.996 871.334,750.329 786.5,749.5 Z"/></g>
<g><path style="opacity:1" fill="#9dbbd5" d="M 967.5,761.5 C 979.851,761.168 992.185,761.501 1004.5,762.5C 1004.38,763.107 1004.04,763.44 1003.5,763.5C 991.5,762.833 979.5,762.167 967.5,761.5 Z"/></g>
<g><path style="opacity:1" fill="#95b5d2" d="M 1601.5,762.5 C 1556,762.168 1510.66,762.501 1465.5,763.5C 1464.96,763.44 1464.62,763.107 1464.5,762.5C 1510.33,761.169 1556,761.169 1601.5,762.5 Z"/></g>
<g><path style="opacity:1" fill="#aac3db" d="M 786.5,900.5 C 793.037,900.586 799.37,901.253 805.5,902.5C 798.928,902.761 792.594,902.094 786.5,900.5 Z"/></g>
<g><path style="opacity:1" fill="#759fc5" d="M 1595.5,902.5 C 1585.83,902.5 1576.17,902.5 1566.5,902.5C 1566.5,904.167 1566.5,905.833 1566.5,907.5C 1565.54,905.735 1565.21,903.735 1565.5,901.5C 1575.68,901.173 1585.68,901.506 1595.5,902.5 Z"/></g>
<g><path style="opacity:1" fill="#d6e2ee" d="M 808.5,902.5 C 840.84,902.167 873.174,902.5 905.5,903.5C 905.376,904.107 905.043,904.44 904.5,904.5C 872.5,903.833 840.5,903.167 808.5,902.5 Z"/></g>
<g><path style="opacity:1" fill="#eff4f8" d="M 854.5,955.5 C 737.999,955.167 621.665,955.5 505.5,956.5C 504.957,956.44 504.624,956.107 504.5,955.5C 621.333,954.168 737.999,954.168 854.5,955.5 Z"/></g>
<g><path style="opacity:1" fill="#407baf" d="M 505.5,956.5 C 621.665,955.5 737.999,955.167 854.5,955.5C 854.167,956.5 853.5,957.167 852.5,957.5C 737.5,956.167 622.5,956.167 507.5,957.5C 506.833,957.167 506.167,956.833 505.5,956.5 Z"/></g>
<g><path style="opacity:1" fill="#2769a5" d="M 852.5,957.5 C 824.337,984.496 797.004,1012.33 770.5,1041C 751.772,1058.87 730.772,1073.54 707.5,1085C 668.139,1098.82 632.139,1092.82 599.5,1067C 566.804,1032.04 536.137,995.543 507.5,957.5C 622.5,956.167 737.5,956.167 852.5,957.5 Z"/></g>
<g><path style="opacity:1" fill="#6896c0" d="M 1625.5,957.5 C 1737.33,956.168 1849.33,956.168 1961.5,957.5C 1961.38,958.107 1961.04,958.44 1960.5,958.5C 1849,957.501 1737.33,957.167 1625.5,957.5 Z"/></g>
<g><path style="opacity:1" fill="#2769a5" d="M 1625.5,957.5 C 1737.33,957.167 1849,957.501 1960.5,958.5C 1938.58,986.268 1916.41,1013.93 1894,1041.5C 1881.65,1055.53 1867.82,1067.69 1852.5,1078C 1801.13,1102.04 1755.13,1094.38 1714.5,1055C 1698.5,1039 1682.5,1023 1666.5,1007C 1651.02,993.686 1635.69,980.186 1620.5,966.5C 1621.93,963.312 1623.59,960.312 1625.5,957.5 Z"/></g>
<g><path style="opacity:1" fill="#c7d7e7" d="M 1518.5,962.5 C 1511.5,965.609 1504.17,967.943 1496.5,969.5C 1503.5,966.391 1510.83,964.057 1518.5,962.5 Z"/></g>
<g><path style="opacity:1" fill="#719ac3" d="M 1160.5,1172.5 C 1161.12,1172.61 1161.62,1172.94 1162,1173.5C 1163.49,1178.78 1164.65,1184.11 1165.5,1189.5C 1163.39,1184.07 1161.72,1178.4 1160.5,1172.5 Z"/></g>
<g><path style="opacity:1" fill="#83a7ca" d="M 1306.5,1178.5 C 1305.95,1181.75 1304.95,1184.75 1303.5,1187.5C 1303.45,1184.01 1304.45,1181.01 1306.5,1178.5 Z"/></g>
<g><path style="opacity:1" fill="#99b7d4" d="M 1302.5,1193.5 C 1302.59,1196.15 1301.92,1198.49 1300.5,1200.5C 1300.41,1197.85 1301.08,1195.51 1302.5,1193.5 Z"/></g>
<g><path style="opacity:1" fill="#97b6d3" d="M 1166.5,1197.5 C 1167.92,1199.51 1168.59,1201.85 1168.5,1204.5C 1167.08,1202.49 1166.41,1200.15 1166.5,1197.5 Z"/></g>
<g><path style="opacity:1" fill="#b0c7dd" d="M 1300.5,1201.5 C 1300.38,1208.1 1299.38,1214.43 1297.5,1220.5C 1297.55,1213.89 1298.55,1207.56 1300.5,1201.5 Z"/></g>
<g><path style="opacity:1" fill="#96b5d2" d="M 1168.5,1208.5 C 1170.22,1211.84 1170.88,1215.51 1170.5,1219.5C 1169.48,1216.03 1168.81,1212.36 1168.5,1208.5 Z"/></g>
<g><path style="opacity:1" fill="#9ab8d5" d="M 1170.5,1220.5 C 1172.03,1225.25 1172.7,1230.25 1172.5,1235.5C 1171.11,1230.73 1170.44,1225.73 1170.5,1220.5 Z"/></g>
<g><path style="opacity:1" fill="#c5d6e7" d="M 1296.5,1228.5 C 1296.26,1247.52 1296.59,1266.52 1297.5,1285.5C 1296.06,1281.08 1295.22,1276.41 1295,1271.5C 1294.07,1256.96 1294.57,1242.63 1296.5,1228.5 Z"/></g>
<g><path style="opacity:1" fill="#749dc4" d="M 1170.5,1290.5 C 1170.27,1296.55 1168.93,1302.21 1166.5,1307.5C 1167.47,1301.63 1168.8,1295.96 1170.5,1290.5 Z"/></g>
<g><path style="opacity:1" fill="#87aacc" d="M 1302.5,1310.5 C 1303.92,1312.51 1304.59,1314.85 1304.5,1317.5C 1303.08,1315.49 1302.41,1313.15 1302.5,1310.5 Z"/></g>
<g><path style="opacity:1" fill="#729bc3" d="M 1165.5,1311.5 C 1165.59,1314.15 1164.92,1316.49 1163.5,1318.5C 1163.41,1315.85 1164.08,1313.51 1165.5,1311.5 Z"/></g>
<g><path style="opacity:1" fill="#fcfdfe" d="M 1137.5,1516.5 C 1136.61,1504.53 1136.28,1492.53 1136.5,1480.5C 1136.51,1478.98 1137.18,1477.82 1138.5,1477C 1157.49,1475.41 1172.33,1482.58 1183,1498.5C 1197.14,1524.18 1189.64,1534.51 1160.5,1529.5C 1149.98,1530.08 1142.31,1525.74 1137.5,1516.5 Z"/></g>
<g><path style="opacity:1" fill="#fcfdfe" d="M 1332.5,1478.5 C 1332.97,1484.33 1333.64,1490 1334.5,1495.5C 1335.72,1504.84 1333.88,1513.51 1329,1521.5C 1325.08,1525.71 1320.25,1528.21 1314.5,1529C 1280.5,1538.03 1271.33,1527.2 1287,1496.5C 1297.36,1483.4 1310.86,1476.24 1327.5,1475C 1329.35,1476.03 1331.01,1477.2 1332.5,1478.5 Z"/></g>
<g><path style="opacity:1" fill="#83a8cb" d="M 1332.5,1478.5 C 1333.22,1478.92 1333.72,1479.58 1334,1480.5C 1334.5,1485.49 1334.67,1490.49 1334.5,1495.5C 1333.64,1490 1332.97,1484.33 1332.5,1478.5 Z"/></g>
<g><path style="opacity:1" fill="#779ec5" d="M 1038.5,1483.5 C 1038.31,1486.86 1037.31,1489.86 1035.5,1492.5C 1035.53,1489.08 1036.53,1486.08 1038.5,1483.5 Z"/></g>
<g><path style="opacity:1" fill="#a4bfd8" d="M 1136.5,1480.5 C 1136.28,1492.53 1136.61,1504.53 1137.5,1516.5C 1136.73,1515.74 1136.23,1514.74 1136,1513.5C 1135.17,1502.33 1135.34,1491.33 1136.5,1480.5 Z"/></g>
<g><path style="opacity:1" fill="#759ec5" d="M 1035.5,1492.5 C 1034.88,1499.82 1034.55,1507.15 1034.5,1514.5C 1033.84,1511.69 1033.5,1508.69 1033.5,1505.5C 1033.32,1500.89 1033.98,1496.56 1035.5,1492.5 Z"/></g>
<g><path style="opacity:1" fill="#5989b8" d="M 1431.5,1488.5 C 1433.01,1490.48 1433.84,1492.81 1434,1495.5C 1434.82,1502.01 1434.65,1508.35 1433.5,1514.5C 1433.74,1505.65 1433.07,1496.99 1431.5,1488.5 Z"/></g>
<g><path style="opacity:1" fill="#a6c0d9" d="M 1433.5,1519.5 C 1433.59,1522.15 1432.92,1524.49 1431.5,1526.5C 1431.41,1523.85 1432.08,1521.51 1433.5,1519.5 Z"/></g>
<g><path style="opacity:1" fill="#b3cadf" d="M 1260.5,1697.5 C 1258.97,1699.25 1256.97,1700.25 1254.5,1700.5C 1256.03,1698.75 1258.03,1697.75 1260.5,1697.5 Z"/></g>
<g><path style="opacity:1" fill="#81a6c9" d="M 1212.5,1699.5 C 1215.15,1699.41 1217.49,1700.08 1219.5,1701.5C 1216.85,1701.59 1214.51,1700.92 1212.5,1699.5 Z"/></g>
<g><path style="opacity:1" fill="#85a9cb" d="M 1219.5,1701.5 C 1226.82,1702.12 1234.15,1702.45 1241.5,1702.5C 1238.85,1703.16 1236.02,1703.5 1233,1703.5C 1228.24,1703.63 1223.74,1702.97 1219.5,1701.5 Z"/></g>
<g><path style="opacity:1" fill="#2869a5" d="M 574.5,1932.5 C 602.502,1932.33 630.502,1932.5 658.5,1933C 671.19,1933.34 683.19,1936.34 694.5,1942C 703.681,1948.19 709.514,1956.69 712,1967.5C 712.667,1974.5 712.667,1981.5 712,1988.5C 708.243,1997.42 703.077,2005.42 696.5,2012.5C 714.205,2025.1 720.372,2042.1 715,2063.5C 710.374,2082.13 698.874,2094.29 680.5,2100C 675.807,2100.91 671.14,2101.91 666.5,2103C 638.167,2103.67 609.833,2103.67 581.5,2103C 578.666,2102.95 576.166,2102.12 574,2100.5C 573.908,2072.63 574.741,2044.8 576.5,2017C 576.016,1991.81 575.016,1966.65 573.5,1941.5C 573.544,1938.42 573.878,1935.42 574.5,1932.5 Z"/></g>
<g><path style="opacity:1" fill="#296aa5" d="M 729.5,1932.5 C 745.744,1932.18 761.911,1932.51 778,1933.5C 777.175,1948.13 776.508,1962.8 776,1977.5C 775.83,2019.07 775.33,2060.57 774.5,2102C 761.548,2103.57 748.548,2103.9 735.5,2103C 734.069,2102.53 732.903,2101.7 732,2100.5C 732.362,2054.84 732.362,2009.17 732,1963.5C 730.918,1953.18 730.085,1942.85 729.5,1932.5 Z"/></g>
<g><path style="opacity:1" fill="#2869a5" d="M 1061.5,1932.5 C 1076.74,1932.74 1091.91,1933.4 1107,1934.5C 1106.39,1955.49 1106.06,1976.49 1106,1997.5C 1111.91,2013.99 1119.41,2029.66 1128.5,2044.5C 1134.69,2028.75 1140.19,2012.75 1145,1996.5C 1145.33,1975.83 1145.67,1955.17 1146,1934.5C 1161.51,1932.97 1177.01,1933.3 1192.5,1935.5C 1191.64,1956.49 1191.48,1977.49 1192,1998.5C 1196.61,2013.84 1202.11,2028.84 1208.5,2043.5C 1211.4,2040.72 1213.57,2037.38 1215,2033.5C 1220.39,2021.33 1225.39,2008.99 1230,1996.5C 1230.47,1978.15 1229.97,1959.81 1228.5,1941.5C 1228.53,1938.91 1228.86,1936.41 1229.5,1934C 1245.06,1932.66 1260.56,1932.5 1276,1933.5C 1277.51,1954.48 1277.84,1975.48 1277,1996.5C 1260.9,2031.86 1244.4,2067.03 1227.5,2102C 1221.44,2103.13 1215.27,2103.63 1209,2103.5C 1202.73,2103.63 1196.56,2103.13 1190.5,2102C 1189.67,2101.17 1188.83,2100.33 1188,2099.5C 1181.33,2082.83 1174.67,2066.17 1168,2049.5C 1160.62,2066.3 1153.62,2083.3 1147,2100.5C 1145.17,2102.07 1143.01,2102.91 1140.5,2103C 1130.5,2103.67 1120.5,2103.67 1110.5,2103C 1109.07,2102.53 1107.9,2101.7 1107,2100.5C 1090.85,2067.86 1075.51,2034.86 1061,2001.5C 1059.19,1978.47 1059.36,1955.47 1061.5,1932.5 Z"/></g>
<g><path style="opacity:1" fill="#2a6aa6" d="M 1644.5,1936.5 C 1652.02,1935.93 1659.36,1936.76 1666.5,1939C 1678.01,1946.89 1680.51,1957.06 1674,1969.5C 1671.08,1974.1 1666.91,1976.6 1661.5,1977C 1649.37,1980.25 1639.53,1977.09 1632,1967.5C 1627.05,1956.6 1629.21,1947.43 1638.5,1940C 1640.73,1939.06 1642.73,1937.89 1644.5,1936.5 Z"/></g>
<g><path style="opacity:1" fill="#fcfdfe" d="M 623.5,1966.5 C 631.507,1966.33 639.507,1966.5 647.5,1967C 661.368,1968.17 666.535,1975.34 663,1988.5C 659.835,1992.67 655.668,1995.17 650.5,1996C 641.5,1996.67 632.5,1996.67 623.5,1996C 622.809,1994.93 622.309,1993.77 622,1992.5C 620.911,1983.57 621.411,1974.9 623.5,1966.5 Z"/></g>
<g><path style="opacity:1" fill="#2969a5" d="M 1741.5,1981.5 C 1770.8,1977.9 1792.96,1988.57 1808,2013.5C 1813.73,2028.73 1815.07,2044.4 1812,2060.5C 1805.7,2083.14 1791.2,2097.3 1768.5,2103C 1732.76,2109.88 1707.92,2096.72 1694,2063.5C 1686.63,2035.06 1693.8,2011.23 1715.5,1992C 1723.49,1986.5 1732.15,1983 1741.5,1981.5 Z"/></g>
<g><path style="opacity:1" fill="#2869a5" d="M 1336.5,1982.5 C 1353.2,1979.9 1367.37,1984.57 1379,1996.5C 1380.18,1992.78 1381.51,1989.12 1383,1985.5C 1383.89,1984.92 1384.89,1984.59 1386,1984.5C 1397.69,1986 1409.19,1988.34 1420.5,1991.5C 1415.87,2023.23 1415.21,2055.06 1418.5,2087C 1418.61,2091.94 1418.11,2096.78 1417,2101.5C 1404.25,2103.33 1391.42,2103.66 1378.5,2102.5C 1377.38,2098.09 1376.21,2093.75 1375,2089.5C 1355.7,2108.62 1334.87,2110.46 1312.5,2095C 1296.95,2081.22 1289.28,2063.89 1289.5,2043C 1290.22,2010.82 1305.89,1990.66 1336.5,1982.5 Z"/></g>
<g><path style="opacity:1" fill="#2a6aa5" d="M 1470.5,1983.5 C 1473.45,1983.22 1476.28,1983.56 1479,1984.5C 1479.92,1988.91 1481.09,1993.25 1482.5,1997.5C 1491.76,1991.11 1501.93,1987.11 1513,1985.5C 1515.87,1985.68 1518.7,1986.02 1521.5,1986.5C 1520.84,2000.82 1520.34,2015.16 1520,2029.5C 1519.5,2030 1519,2030.5 1518.5,2031C 1509.83,2031.33 1501.17,2031.67 1492.5,2032C 1488.23,2033.27 1485.73,2036.1 1485,2040.5C 1484.61,2060.84 1484.61,2081.17 1485,2101.5C 1484.25,2102.13 1483.42,2102.63 1482.5,2103C 1470.5,2103.67 1458.5,2103.67 1446.5,2103C 1444.67,2102.73 1443.17,2101.89 1442,2100.5C 1441.67,2072.17 1441.33,2043.83 1441,2015.5C 1440.29,2007.67 1438.79,2000.01 1436.5,1992.5C 1436.61,1991.56 1436.94,1990.72 1437.5,1990C 1448.77,1988.51 1459.77,1986.35 1470.5,1983.5 Z"/></g>
<g><path style="opacity:1" fill="#296aa5" d="M 1566.5,1983.5 C 1569.12,1983.23 1571.62,1983.56 1574,1984.5C 1574.34,1988.56 1575.01,1992.56 1576,1996.5C 1576.41,1996.96 1576.91,1997.29 1577.5,1997.5C 1586.51,1990.58 1596.68,1986.58 1608,1985.5C 1614.32,1984.69 1616.82,1987.52 1615.5,1994C 1615.01,2006.18 1614.34,2018.34 1613.5,2030.5C 1604.88,2031.31 1596.21,2031.81 1587.5,2032C 1584.09,2033.08 1581.59,2035.24 1580,2038.5C 1579.71,2059.53 1579.54,2080.53 1579.5,2101.5C 1578.5,2102 1577.5,2102.5 1576.5,2103C 1565.17,2103.67 1553.83,2103.67 1542.5,2103C 1540.32,2102.84 1538.49,2102 1537,2100.5C 1536.67,2073.17 1536.33,2045.83 1536,2018.5C 1534.44,2009.14 1533.11,1999.81 1532,1990.5C 1543.53,1988 1555.03,1985.66 1566.5,1983.5 Z"/></g>
<g><path style="opacity:1" fill="#2a6aa5" d="M 1858.5,1983.5 C 1861.45,1983.22 1864.28,1983.56 1867,1984.5C 1868.19,1988.38 1868.86,1992.38 1869,1996.5C 1869.41,1996.96 1869.91,1997.29 1870.5,1997.5C 1879.63,1990.87 1889.8,1986.87 1901,1985.5C 1903.87,1985.68 1906.7,1986.02 1909.5,1986.5C 1908.87,2000.82 1908.37,2015.16 1908,2029.5C 1907.5,2030 1907,2030.5 1906.5,2031C 1897.83,2031.33 1889.17,2031.67 1880.5,2032C 1876.67,2033.17 1874.17,2035.67 1873,2039.5C 1872.55,2060.18 1872.55,2080.84 1873,2101.5C 1872.25,2102.13 1871.42,2102.63 1870.5,2103C 1858.5,2103.67 1846.5,2103.67 1834.5,2103C 1832.67,2102.73 1831.17,2101.89 1830,2100.5C 1829.67,2072.5 1829.33,2044.5 1829,2016.5C 1828.12,2008.38 1826.62,2000.38 1824.5,1992.5C 1824.61,1991.56 1824.94,1990.72 1825.5,1990C 1836.68,1988.07 1847.68,1985.9 1858.5,1983.5 Z"/></g>
<g><path style="opacity:1" fill="#2869a5" d="M 803.5,1987.5 C 816.746,1987.18 829.913,1987.51 843,1988.5C 841.66,2001.93 840.827,2015.43 840.5,2029C 840.528,2037.2 841.028,2045.36 842,2053.5C 845.5,2068.82 854.333,2072.66 868.5,2065C 871.762,2062.41 874.262,2059.24 876,2055.5C 876.333,2033.17 876.667,2010.83 877,1988.5C 891.092,1987.34 905.258,1987.18 919.5,1988C 920,1988.5 920.5,1989 921,1989.5C 920.983,2009.34 920.483,2029.17 919.5,2049C 920.333,2066.5 920.5,2084 920,2101.5C 917.931,2102.26 915.764,2102.76 913.5,2103C 902.167,2103.67 890.833,2103.67 879.5,2103C 878.667,2102.17 877.833,2101.33 877,2100.5C 876.87,2096.05 876.204,2091.72 875,2087.5C 865.521,2094.66 855.021,2099.82 843.5,2103C 822.125,2106.57 807.625,2098.41 800,2078.5C 795.333,2050.5 795.333,2022.5 800,1994.5C 800.653,1991.86 801.82,1989.53 803.5,1987.5 Z"/></g>
<g><path style="opacity:1" fill="#2869a5" d="M 936.5,1987.5 C 947.838,1987.33 959.172,1987.5 970.5,1988C 977.313,1996.31 984.313,2004.48 991.5,2012.5C 998.372,2005.13 1004.71,1997.29 1010.5,1989C 1022.72,1987.57 1034.89,1987.4 1047,1988.5C 1047.67,1997.17 1047.67,2005.83 1047,2014.5C 1037.82,2024.35 1028.65,2034.18 1019.5,2044C 1028.28,2054.45 1037.45,2064.62 1047,2074.5C 1047.83,2083.52 1047.67,2092.52 1046.5,2101.5C 1036.26,2103.39 1025.92,2103.89 1015.5,2103C 1012.9,2102.12 1010.73,2100.62 1009,2098.5C 1003.58,2090.66 997.911,2082.99 992,2075.5C 986.186,2081.8 980.853,2088.47 976,2095.5C 973.408,2098.76 970.241,2101.26 966.5,2103C 958.167,2103.67 949.833,2103.67 941.5,2103C 939.649,2102.16 937.816,2101.33 936,2100.5C 935.333,2092.17 935.333,2083.83 936,2075.5C 946.017,2064.98 955.851,2054.32 965.5,2043.5C 955.151,2033.98 945.318,2023.98 936,2013.5C 935.198,2004.76 935.364,1996.09 936.5,1987.5 Z"/></g>
<g><path style="opacity:1" fill="#296aa5" d="M 1629.5,1987.5 C 1645.16,1988.72 1660.83,1988.72 1676.5,1987.5C 1674.84,2025.47 1674.01,2063.47 1674,2101.5C 1672.6,2102.23 1671.1,2102.73 1669.5,2103C 1658.17,2103.67 1646.83,2103.67 1635.5,2103C 1634.23,2102.69 1633.07,2102.19 1632,2101.5C 1632,2063.47 1631.16,2025.47 1629.5,1987.5 Z"/></g>
<g><path style="opacity:1" fill="#fcfdfd" d="M 1345.5,2019.5 C 1359.46,2016.49 1369.63,2021.16 1376,2033.5C 1380.15,2055.68 1370.98,2066.51 1348.5,2066C 1335.4,2060.98 1329.57,2051.48 1331,2037.5C 1333.25,2029.3 1338.08,2023.3 1345.5,2019.5 Z"/></g>
<g><path style="opacity:1" fill="#fcfdfd" d="M 1751.5,2018.5 C 1766.3,2019.91 1773.63,2028.08 1773.5,2043C 1772.28,2062.59 1762.28,2069.93 1743.5,2065C 1733.6,2057.66 1729.77,2047.82 1732,2035.5C 1735.34,2025.98 1741.84,2020.31 1751.5,2018.5 Z"/></g>
<g><path style="opacity:1" fill="#fcfdfd" d="M 624.5,2032.5 C 633.839,2032.33 643.173,2032.5 652.5,2033C 666.91,2036.32 671.41,2044.82 666,2058.5C 662.72,2062.46 658.554,2064.63 653.5,2065C 643.833,2065.67 634.167,2065.67 624.5,2065C 624,2064.5 623.5,2064 623,2063.5C 622.833,2058.5 622.667,2053.5 622.5,2048.5C 622.551,2042.92 623.218,2037.59 624.5,2032.5 Z"/></g>
</svg>
